<?xml version="1.0" standalone="no"?>
<!DOCTYPE svg PUBLIC "-//W3C//DTD SVG 20010904//EN"
 "http://www.w3.org/TR/2001/REC-SVG-20010904/DTD/svg10.dtd">
<svg version="1.0" xmlns="http://www.w3.org/2000/svg"
 width="700.000000pt" height="700.000000pt" viewBox="0 0 700.000000 700.000000"
 preserveAspectRatio="xMidYMid meet">
<metadata>
Created by potrace 1.11, written by Peter Selinger 2001-2013
</metadata>
<g transform="translate(0.000000,700.000000) scale(0.100000,-0.100000)"
fill="#000000" stroke="none">
<path d="M25 6975 l-25 -24 0 -3451 0 -3451 25 -24 24 -25 3451 0 3451 0 24
25 25 24 0 3451 0 3451 -25 24 -24 25 -3451 0 -3451 0 -24 -25z m6030 -985
c68 -33 175 -142 209 -212 42 -86 45 -157 11 -243 -53 -132 -334 -684 -513
-1005 -849 -1524 -1741 -2617 -2505 -3073 -663 -395 -1367 -416 -1907 -59
-118 79 -319 281 -399 401 -330 499 -381 1083 -166 1913 157 601 476 1326 884
2009 126 212 177 259 278 259 149 0 321 -252 289 -423 -3 -19 -30 -72 -58
-118 -325 -530 -567 -1034 -728 -1519 -141 -422 -204 -760 -203 -1085 1 -436
147 -758 421 -934 164 -105 554 -168 788 -127 269 47 502 166 809 416 583 474
1250 1358 1920 2546 98 172 425 788 425 799 0 15 205 414 222 432 54 58 134
66 223 23z m-3032 -688 c77 -38 148 -111 185 -190 24 -50 27 -69 27 -157 -1
-88 -4 -106 -27 -150 -42 -80 -93 -131 -166 -167 -61 -30 -74 -33 -162 -33
-82 0 -103 4 -152 27 -80 37 -152 107 -191 187 -30 61 -32 73 -32 166 1 89 4
106 28 152 73 140 186 206 344 200 67 -3 92 -9 146 -35z m1242 19 c157 -55
258 -198 257 -362 -1 -92 -27 -168 -78 -227 -198 -232 -572 -143 -649 154 -20
79 -19 133 5 205 28 82 63 132 123 176 99 73 230 93 342 54z"/>
</g>
</svg>
