<?xml version="1.0" encoding="UTF-8"?>
<svg width="24px" height="24px" viewBox="0 0 24 24" version="1.1" xmlns="http://www.w3.org/2000/svg" xmlns:xlink="http://www.w3.org/1999/xlink">
    <!-- Generator: Sketch 49.2 (51160) - http://www.bohemiancoding.com/sketch -->
    <title>Shape</title>
    <desc>Created with Sketch.</desc>
    <defs></defs>
    <g id="Desktop" stroke="none" stroke-width="1" fill="none" fill-rule="evenodd">
        <g id="Main-Page-Start" transform="translate(-633.000000, -599.000000)" fill="#FFFFFF" fill-rule="nonzero">
            <g id="Group-2-Copy" transform="translate(631.000000, 599.000000)">
                <g id="phone-contact" transform="translate(2.000000, 0.000000)">
                    <path d="M20.5010909,12.0029091 L19.2894545,12.0029091 C19.2894545,8.04872727 16.0734545,4.83345455 12.1214545,4.83345455 L12.1207273,3.62327178 C16.7425455,3.62109091 20.5010909,7.38109091 20.5010909,12.0029091 Z M12.1207273,5.71345455 L12.12,6.92363636 C14.9221818,6.92363636 17.1985455,9.20218182 17.1970909,12.0021818 L18.4087273,12.0014545 C18.4087273,8.53454545 15.5898182,5.71345455 12.1207273,5.71345455 Z M11.8785455,0 C5.328,0 0,5.328 0,11.8792727 C0,18.4290909 5.328,23.7570909 11.8785455,23.7570909 C12.2836364,23.7570909 12.6109091,23.4298182 12.6109091,23.0254545 C12.6109091,22.6189091 12.2836364,22.2909091 11.8785455,22.2909091 C6.136,22.2909091 1.46545455,17.6189091 1.46545455,11.8792727 C1.46545455,6.13672727 6.136,1.46545455 11.8785455,1.46545455 C17.6210909,1.46545455 22.2909091,6.13745455 22.2909091,11.8792727 C22.2909091,14.2785455 21.0138182,16.656 19.1861818,17.664 C18.5221818,18.0290909 17.8021818,18.2101818 17.0341818,18.2174545 C17.4952727,17.9432727 17.8945455,17.5723636 18.1912727,17.1054545 C18.2494545,17.0174545 18.3265455,16.9396364 18.3643636,16.8443636 C18.6029091,16.2705455 18.624,15.6196364 18.768,15.0130909 C18.9447273,14.2392727 15.3803636,12.7272727 15.0705455,13.6938182 C14.9585455,14.0516364 14.7869091,15.1832727 14.5621818,15.4814545 C14.3621818,15.7476364 13.8690909,15.6210909 13.5607273,15.3592727 C12.7483636,14.6669091 11.8414545,13.6494545 11.0458182,12.8450909 L11.0472727,12.8443636 C11.0269091,12.8232727 11.0021818,12.8 10.9803636,12.7774545 C10.9578182,12.7563636 10.9352727,12.7323636 10.9127273,12.7105455 L10.9127273,12.712 C10.1083636,11.9149091 9.09018182,11.0101818 8.39854545,10.1963636 C8.13672727,9.888 8.01018182,9.39490909 8.27636364,9.19490909 C8.57454545,8.96872727 9.70618182,8.8 10.064,8.68654545 C11.0283636,8.37818182 9.51854545,4.81163636 8.74327273,4.98909091 C8.13818182,5.13090909 7.48727273,5.15418182 6.91345455,5.39127273 C6.816,5.43272727 6.74036364,5.50763636 6.65236364,5.56581818 C4.61672727,6.856 4.35418182,9.98909091 6.34109091,12.3236364 C7.09818182,13.2167273 7.888,14.0807273 8.70109091,14.9243636 L8.69672727,14.9272727 C8.71927273,14.9498182 8.74254545,14.9709091 8.76581818,14.9927273 C8.78763636,15.0152727 8.80872727,15.0378182 8.82981818,15.0618182 L8.83418182,15.0574545 C9.67781818,15.8705455 10.6778182,17.0683636 12.3025455,18.152 C15.7229091,20.4363636 18.3476364,19.7985455 19.8938182,18.9505455 C22.5629091,17.4807273 23.7570909,14.3410909 23.7570909,11.8821818 C23.7570909,5.328 18.4283636,0 11.8785455,0 Z" id="Shape"></path>
                </g>
            </g>
        </g>
    </g>
</svg>