<?xml version="1.0" encoding="UTF-8"?>
<svg width="19px" height="24px" viewBox="0 0 19 24" version="1.1" xmlns="http://www.w3.org/2000/svg" xmlns:xlink="http://www.w3.org/1999/xlink">
    <!-- Generator: Sketch 49.2 (51160) - http://www.bohemiancoding.com/sketch -->
    <title>Shape</title>
    <desc>Created with Sketch.</desc>
    <defs></defs>
    <g id="Desktop" stroke="none" stroke-width="1" fill="none" fill-rule="evenodd">
        <g id="Main-Page-Start" transform="translate(-305.000000, -597.000000)" fill="#FFFFFF" fill-rule="nonzero">
            <g id="Group-2" transform="translate(300.000000, 597.000000)">
                <g id="pilot-2" transform="translate(5.000000, 0.000000)">
                    <path d="M14.0834419,15.8803721 C13.4434419,15.5516279 12.8827907,15.2637209 12.5812093,14.9387907 L12.548,14.7615814 C14.3389767,13.6351628 15.4737674,11.3893953 15.4737674,8.89795349 C15.4737674,8.70213953 15.4637209,8.5092093 15.4466977,8.31888372 C15.9392558,8.06111628 16.2341395,7.86772093 16.2714419,7.84269767 C16.4424186,7.72865116 16.5453953,7.53655814 16.5453953,7.33069767 C16.5453953,7.12483721 16.4424186,6.93293023 16.2714419,6.81869767 C16.247907,6.80288372 16.1223256,6.72046512 15.9097674,6.5972093 C16.447814,6.02716279 16.7505116,5.3652093 16.7505116,4.63934884 C16.7505116,4.29953488 16.4816744,4.02437209 16.1416744,4.02437209 C15.7987907,3.992 14.6369302,3.08725581 13.868,2.48874419 C12.2965581,1.2652093 10.6714419,0 9.4452093,0 C8.18,0 6.5424186,1.28139535 4.95832558,2.52055814 C4.16623256,3.14027907 3.08102326,3.98939535 2.75497674,4.02427907 C2.41544186,4.02427907 2.13981395,4.29962791 2.13981395,4.63944186 C2.13981395,5.36530233 2.44251163,6.02744186 2.98074419,6.59748837 C2.76827907,6.72074419 2.6427907,6.80316279 2.61925581,6.81897674 C2.448,6.93302326 2.34511628,7.12511628 2.34511628,7.33097674 C2.34511628,7.53683721 2.44809302,7.72874419 2.61925581,7.84297674 C2.65674419,7.868 2.95125581,8.06111628 3.44381395,8.31888372 C3.4267907,8.5092093 3.41674419,8.70213953 3.41674419,8.89813953 C3.41674419,11.3893953 4.55153488,13.6353488 6.34288372,14.7617674 L6.30967442,14.9389767 C6.008,15.264 5.44744186,15.551907 4.80744186,15.8805581 C2.89386047,16.8627907 0.00213953488,18.3471628 0.00213953488,23.2986977 C0.00213953488,23.6385116 0.277767442,23.9138605 0.617302326,23.9138605 L18.2733023,23.9138605 C18.6133023,23.9138605 18.8884651,23.6385116 18.8884651,23.2986977 C18.888093,18.3470698 15.9965581,16.8626047 14.0834419,15.8803721 Z M3.44381395,5.07497674 C4.01060465,4.81190698 4.72232558,4.26706977 5.71646512,3.48948837 C6.93506977,2.53618605 8.60409302,1.2304186 9.4452093,1.2304186 C10.2490233,1.2304186 11.903814,2.5187907 13.1122791,3.45962791 C14.1350698,4.25609302 14.8656744,4.81218605 15.4455814,5.07748837 C15.331814,5.40827907 15.0893953,5.71934884 14.7459535,6.00083721 C13.6167442,5.48716279 11.9500465,4.90437209 10.0460465,4.7987907 L12.2223256,3.20567442 L10.3271628,3.20567442 L9.42390698,3.72139535 L8.49190698,3.20567442 L6.66818605,3.20567442 L8.84446512,4.7987907 C6.94055814,4.90418605 5.27404651,5.48697674 4.14455814,6.00083721 C3.80018605,5.71860465 3.5572093,5.40669767 3.44381395,5.07497674 Z M9.4452093,6.01144186 C11.6335814,6.01144186 13.5786977,6.78902326 14.6686512,7.3307907 C13.5786047,7.87274419 11.6333953,8.65013953 9.4452093,8.65013953 C7.25683721,8.65013953 5.31172093,7.87274419 4.22204651,7.3307907 C5.31190698,6.78883721 7.25711628,6.01144186 9.4452093,6.01144186 Z M8.8504186,22.6312558 L9.40418605,20.876 L9.44502326,20.9168372 L9.48604651,20.876 L10.0397209,22.6312558 L8.8504186,22.6312558 Z M9.4452093,19.1771163 L8.59934884,18.3310698 L9.4452093,17.4850233 L10.2910698,18.3310698 L9.4452093,19.1771163 Z M11.3463256,22.6833488 L10.4668837,19.8954419 L12.0312558,18.3310698 L9.44530233,15.7453023 L6.85953488,18.3310698 L8.42372093,19.8952558 L7.544,22.6834419 L1.24976744,22.6834419 C1.46362791,18.980093 3.61944186,17.8732093 5.36911628,16.9748837 C6.20902326,16.5436279 6.93451163,16.1712558 7.37804651,15.576 C7.43386047,15.5011163 7.472,15.4142326 7.4892093,15.3223256 L7.63293023,14.5576744 C7.68353488,14.2886512 7.55069767,14.0189767 7.30669767,13.8953488 C5.69088372,13.076186 4.64688372,11.1146047 4.64688372,8.89832558 C4.64688372,8.89172093 4.64753488,8.88539535 4.64772093,8.87860465 C5.87581395,9.38260465 7.56483721,9.88074419 9.4452093,9.88074419 C11.3253953,9.88074419 13.0142326,9.38269767 14.2426977,8.8787907 C14.2426977,8.88539535 14.2433488,8.89172093 14.2433488,8.89823256 C14.2433488,11.1146977 13.1996279,13.076093 11.584,13.8952558 C11.340186,14.0190698 11.2070698,14.2887442 11.2575814,14.5575814 L11.4013023,15.3222326 C11.4185116,15.4141395 11.4566512,15.5010233 11.5126512,15.575907 C11.956,16.1711628 12.6814884,16.543814 13.5215814,16.9747907 C15.2708837,17.8731163 17.4268837,18.98 17.6407442,22.6834419 L11.3463256,22.6833488 Z" id="Shape"></path>
                </g>
            </g>
        </g>
    </g>
</svg>