<?xml version="1.0" encoding="UTF-8"?>
<svg width="24px" height="23px" viewBox="0 0 24 23" version="1.1" xmlns="http://www.w3.org/2000/svg" xmlns:xlink="http://www.w3.org/1999/xlink">
    <!-- Generator: Sketch 49.2 (51160) - http://www.bohemiancoding.com/sketch -->
    <title>document</title>
    <desc>Created with Sketch.</desc>
    <defs></defs>
    <g id="Desktop" stroke="none" stroke-width="1" fill="none" fill-rule="evenodd">
        <g id="Main-Page-Start" transform="translate(-904.000000, -599.000000)" fill="#FFFFFF" fill-rule="nonzero">
            <g id="Group-2-Copy-2" transform="translate(900.000000, 599.000000)">
                <g id="document" transform="translate(4.000000, 0.000000)">
                    <path d="M6.14939062,0.0305625 C4.63945312,0.0305625 3.4108125,1.248 3.4108125,2.73876563 L3.31125,16.7802656 L4.80501562,16.7909531 L4.904625,2.74425 C4.904625,2.07154688 5.46304687,1.52432813 6.1494375,1.52432813 L21.1619062,1.52432813 L21.1619062,0.0305625 L6.14939062,0.0305625 Z" id="Shape"></path>
                    <path d="M21.1618125,0.0305625 C19.5968437,0.0305625 18.323625,1.30373437 18.323625,2.86875 L18.323625,18.6280781 C18.323625,19.7673281 17.3964844,20.6944688 16.2572344,20.6944688 C15.1179844,20.6944688 14.1908438,19.7673281 14.1908438,18.6280781 L14.1908438,16.8106406 C14.1908438,16.3980938 13.8564844,16.0637344 13.4439375,16.0637344 L0.74690625,16.0637344 C0.334359375,16.0637344 0,16.3980938 0,16.8106406 L0,18.6280781 C0,20.5911563 1.59707812,22.1882344 3.56015625,22.1882344 L3.56015625,20.6944688 C2.42067188,20.6944688 1.49376563,19.7673281 1.49376563,18.6280781 L1.49376563,17.5575 L12.6970781,17.5575 L12.6970781,18.6280313 C12.6970781,20.5911094 14.2941563,22.1881875 16.2572344,22.1881875 C18.2203125,22.1881875 19.8173906,20.5911094 19.8173906,18.6280313 L19.8173906,6.95170313 L23.2530937,6.95170313 C23.6656406,6.95170313 24,6.61734375 24,6.20479688 L24,2.86870313 C24,1.30373437 22.7268281,0.0305625 21.1618125,0.0305625 Z M22.5062344,5.4579375 L19.8174375,5.4579375 L19.8174375,2.86870312 C19.8174375,2.12728125 20.4206719,1.52432812 21.1618125,1.52432812 C21.9029531,1.52432812 22.5061875,2.12732812 22.5061875,2.86870312 L22.5061875,5.4579375 L22.5062344,5.4579375 Z" id="Shape"></path>
                    <rect id="Rectangle-path" x="3.41076562" y="20.6944219" width="12.6719531" height="1.49376563"></rect>
                    <path d="M11.10375,4.18823438 L7.2448125,4.18823438 C6.83226562,4.18823438 6.49790625,4.52259375 6.49790625,4.93514063 C6.49790625,5.3476875 6.83226562,5.68204688 7.2448125,5.68204688 L11.10375,5.68204688 C11.5162969,5.68204688 11.8506563,5.3476875 11.8506563,4.93514063 C11.8506563,4.52259375 11.51625,4.18823438 11.10375,4.18823438 Z" id="Shape"></path>
                    <path d="M15.5850469,7.17576563 L7.2448125,7.17576563 C6.83226563,7.17576563 6.49790625,7.510125 6.49790625,7.92267188 C6.49790625,8.33521875 6.83226563,8.66957813 7.2448125,8.66957813 L15.5850469,8.66957813 C15.9975938,8.66957813 16.3319531,8.33521875 16.3319531,7.92267188 C16.3319531,7.510125 15.9975938,7.17576563 15.5850469,7.17576563 Z" id="Shape"></path>
                    <path d="M15.5850469,10.1632969 L7.2448125,10.1632969 C6.83226563,10.1632969 6.49790625,10.4976563 6.49790625,10.9102031 C6.49790625,11.32275 6.83226563,11.6571094 7.2448125,11.6571094 L15.5850469,11.6571094 C15.9975938,11.6571094 16.3319531,11.3229844 16.3319531,10.9102031 C16.3319531,10.4976562 15.9975938,10.1632969 15.5850469,10.1632969 Z" id="Shape"></path>
                    <path d="M15.5850469,13.150875 L7.2448125,13.150875 C6.83226563,13.150875 6.49790625,13.4852344 6.49790625,13.8977812 C6.49790625,14.3103281 6.83226563,14.6446875 7.2448125,14.6446875 L15.5850469,14.6446875 C15.9975938,14.6446875 16.3319531,14.3103281 16.3319531,13.8977812 C16.3319531,13.4852344 15.9975938,13.150875 15.5850469,13.150875 Z" id="Shape"></path>
                </g>
            </g>
        </g>
    </g>
</svg>